<svg xmlns="http://www.w3.org/2000/svg" xmlns:xlink="http://www.w3.org/1999/xlink" viewBox="0,0,256,256" width="48px" height="48px" fill-rule="nonzero"><defs><radialGradient cx="11.177" cy="8.393" r="40.312" gradientUnits="userSpaceOnUse" id="color-1"><stop offset="0" stop-color="#eeeeee"></stop><stop offset="0.484" stop-color="#eeeeee"></stop><stop offset="0.775" stop-color="#eeeeee"></stop><stop offset="1" stop-color="#eeeeee"></stop></radialGradient><radialGradient cx="24" cy="44.108" r="16.14" gradientUnits="userSpaceOnUse" id="color-2"><stop offset="0" stop-color="#eeeeee"></stop><stop offset="1" stop-color="#eeeeee"></stop></radialGradient><radialGradient cx="24" cy="20" r="9.5" gradientUnits="userSpaceOnUse" id="color-3"><stop offset="0" stop-color="#eeeeee"></stop><stop offset="1" stop-color="#eeeeee"></stop></radialGradient><linearGradient x1="18.573" y1="13.573" x2="29.735" y2="24.735" gradientUnits="userSpaceOnUse" id="color-4"><stop offset="0" stop-color="#999999"></stop><stop offset="1" stop-color="#999999"></stop></linearGradient><linearGradient x1="17.007" y1="31.21" x2="30.888" y2="45.091" gradientUnits="userSpaceOnUse" id="color-5"><stop offset="0" stop-color="#999999"></stop><stop offset="1" stop-color="#999999"></stop></linearGradient></defs><g fill="none" fill-rule="nonzero" stroke="none" stroke-width="1" stroke-linecap="butt" stroke-linejoin="miter" stroke-miterlimit="10" stroke-dasharray="" stroke-dashoffset="0" font-family="none" font-weight="none" font-size="none" text-anchor="none" style="mix-blend-mode: normal"><g transform="scale(5.33333,5.33333)"><path d="M44,24c0,11.045 -8.955,20 -20,20c-11.045,0 -20,-8.955 -20,-20c0,-11.045 8.955,-20 20,-20c11.045,0 20,8.955 20,20z" fill="url(#color-1)"></path><path d="M24,44c5.795,0 10.998,-2.48 14.651,-6.418c-2.474,-5.639 -8.099,-9.582 -14.651,-9.582c-6.552,0 -12.177,3.943 -14.651,9.582c3.653,3.938 8.856,6.418 14.651,6.418z" fill="url(#color-2)"></path><circle cx="24" cy="20" r="9.5" fill="url(#color-3)"></circle><circle cx="24" cy="19" r="8" fill="url(#color-4)"></circle><path d="M24,44c5.015,0 9.587,-1.859 13.098,-4.909c-1.991,-5.307 -7.096,-9.091 -13.098,-9.091c-6.002,0 -11.107,3.784 -13.098,9.091c3.511,3.05 8.083,4.909 13.098,4.909z" fill="url(#color-5)"></path></g></g></svg>