<svg xmlns="http://www.w3.org/2000/svg" xmlns:xlink="http://www.w3.org/1999/xlink" viewBox="0,0,256,256" width="32px" height="32px" fill-rule="nonzero"><g fill="#ffffff" fill-rule="nonzero" stroke="none" stroke-width="1" stroke-linecap="butt" stroke-linejoin="miter" stroke-miterlimit="10" stroke-dasharray="" stroke-dashoffset="0" font-family="none" font-weight="none" font-size="none" text-anchor="none" style="mix-blend-mode: normal"><g transform="scale(8,8)"><path d="M16,4.00195c-2.919,0 -5.837,0.34611 -8.75,1.03711c-1.095,0.259 -1.95194,1.11594 -2.21094,2.21094c-1.383,5.826 -1.383,11.67595 0,17.50195c0.259,1.095 1.11594,1.95194 2.21094,2.21094c5.826,1.383 11.67595,1.383 17.50195,0v-0.00195c1.094,-0.261 1.94798,-1.11498 2.20898,-2.20898h0.00195c1.383,-5.826 1.383,-11.67595 0,-17.50195c-0.259,-1.095 -1.11594,-1.95194 -2.21094,-2.21094c-2.913,-0.691 -5.83295,-1.03711 -8.75195,-1.03711zM16,6c0.46429,0 0.92816,0.02247 1.39258,0.04102c0.03207,0.06742 0.05956,0.12605 0.09375,0.19727c0.35141,0.73442 0.80048,1.67377 1.1582,2.81445c-1.57787,-0.05987 -3.1567,-0.06058 -4.73437,0.01172c-0.36315,-1.18324 -0.80313,-2.15134 -1.1582,-2.89844c1.0829,-0.10085 2.16551,-0.16602 3.24805,-0.16602zM19.68164,6.20508c1.53523,0.16197 3.07202,0.41482 4.60938,0.7793c0.349,0.083 0.64161,0.37756 0.72461,0.72656c0.15935,0.67162 0.29925,1.34265 0.41992,2.01367c-1.56044,-0.24823 -3.12508,-0.4291 -4.69141,-0.54687c-0.30712,-1.1668 -0.69355,-2.1639 -1.0625,-2.97266zM10.66406,6.42188c0.04934,0.10414 0.09392,0.2022 0.14844,0.31641c0.3141,0.65505 0.70394,1.48743 1.03906,2.4668c-1.77549,0.14622 -3.54734,0.37749 -5.31445,0.69141c0.12738,-0.72821 0.27433,-1.45668 0.44727,-2.18555c0.083,-0.349 0.37756,-0.64356 0.72656,-0.72656c0.98518,-0.23357 1.9692,-0.41209 2.95312,-0.5625zM16.5,11.00195c3.08815,0 6.17522,0.27816 9.24609,0.80274c0.50076,4.16162 0.25846,8.31702 -0.73047,12.48437c-0.083,0.35 -0.37556,0.64256 -0.72656,0.72656c-5.534,1.313 -11.04512,1.313 -16.57812,0c-0.349,-0.083 -0.64356,-0.37561 -0.72656,-0.72461c-0.97547,-4.1114 -1.222,-8.21125 -0.74805,-12.31641c3.4055,-0.64682 6.83452,-0.97266 10.26367,-0.97266zM14.49805,14.00391c-0.954,-0.061 -1.9565,0.5688 -2.1875,1.5918c-0.321,1.449 -0.43247,3.162 0.01953,4.875c0.12,0.446 0.39152,0.89131 0.85352,1.19531c0.462,0.304 1.11284,0.40442 1.71484,0.23242c1.757,-0.486 3.51381,-1.47895 4.50781,-2.50195c0.323,-0.325 0.59375,-0.82216 0.59375,-1.41016c0,-0.659 -0.33136,-1.17577 -0.69336,-1.50977c-1.104,-1.064 -2.86049,-1.95634 -4.39648,-2.40234c-0.13,-0.041 -0.27111,-0.06031 -0.41211,-0.07031zM14.2793,15.98047c0,0.01 0.02008,0.03002 0.08008,0.04102c1.195,0.355 2.8805,1.26678 3.5625,1.92578h0.00977c0.02,0.02 0.02125,0.03002 0.03125,0.04102c-0.552,0.556 -2.24875,1.58008 -3.59375,1.95508c-0.04,0.02 -0.06984,0.01953 -0.08984,0.01953c0,0 0.00023,-0.00953 -0.00977,-0.01953c-0.341,-1.297 -0.271,-2.70634 0,-3.90234c0.01,-0.051 0.00977,-0.06055 0.00977,-0.06055z"></path></g></g></svg>